<svg width="40" height="40" viewBox="0 0 40 40" fill="none" xmlns="http://www.w3.org/2000/svg">
<path d="M9.69696 26.1819C9.45454 25.9394 9.27272 25.5758 9.21211 25.2122C7.93938 26.1819 7.15151 27.2728 4.18181 27.5152C3.99999 27.5152 3.93939 27.5152 3.93939 27.5152C3.63636 27.5758 3.39393 27.8788 3.39393 28.1819C3.39393 28.4849 3.69696 28.7879 4.0606 28.7273H4.30302C4.36363 28.7273 4.42423 28.7273 4.48484 28.7273C5.21211 28.7273 5.63635 28.9091 5.69696 29.0909C5.75757 29.1516 5.93939 29.8788 3.81817 32C1.39393 34.2425 1.21212 37.8788 1.21212 38C1.21212 38.1819 1.27272 38.3031 1.39393 38.4243C1.51515 38.5455 1.69696 38.6061 1.81818 38.6061C7.81817 38.3637 9.0909 34.3031 10.8485 34.3031C11.4545 34.3031 11.2727 35.8182 11.2727 35.9394C11.2121 36.7273 12.4242 36.8485 12.4848 36.0606C12.4848 36.0606 12.4848 35.9394 12.4848 35.8182C12.6667 33.6364 13.4545 32.6061 14.2424 31.5152C14.4242 31.2728 14.606 31.0303 14.7273 30.7879C14.3636 30.7273 14 30.5455 13.7576 30.3031L9.69696 26.1819ZM9.57575 22.9697C10.5454 19.5152 12.0606 15.394 14.3636 11.6364C12.4242 12.6667 9.75757 13.1515 8.18181 11.5758C8.0606 11.4546 7.87878 11.394 7.63635 11.394C7.39393 11.394 7.27272 11.5152 7.21211 11.697L0.666661 24.2425C0.545449 24.4243 0.545449 24.7273 0.727267 24.9091C0.909085 25.0909 1.15151 25.1516 1.33333 25.0909L9.57575 22.9697ZM28.303 25.6364C24.5454 27.9394 20.4848 29.4546 16.9697 30.4243L14.8485 38.6667C14.7879 38.9091 14.8485 39.1516 15.0303 39.2728C15.1515 39.394 15.2727 39.394 15.3939 39.394C15.5151 39.394 15.5757 39.394 15.697 39.3334L28.1818 32.7879C28.3636 32.7273 28.4848 32.5455 28.4848 32.3637C28.4848 32.1819 28.4242 32 28.303 31.8788C26.8485 30.3031 27.2727 27.5758 28.303 25.6364ZM22.9091 9.69699C21.6363 10.9697 21.2727 12.6061 22 13.394C22.9091 14.3031 24.7273 13.4546 25.697 12.4849C26.606 11.5758 27.5151 9.69699 26.606 8.7879C25.697 7.87881 23.8788 8.7273 22.9091 9.69699ZM38.4242 1.63638C37.8182 0.969716 36.9697 0.606079 36.0606 0.606079H36C34.1212 0.666685 31.3333 0.90911 28.3636 1.87881C29.2121 4.36366 35.6363 10.7879 38.1818 11.6364C39.1515 8.66669 39.3939 5.87881 39.4545 4.00002C39.3939 3.09093 39.0909 2.24244 38.4242 1.63638ZM10.5454 25.3334L14.7273 29.5152C14.8485 29.6364 14.9697 29.697 15.1515 29.697C15.2121 29.697 15.2727 29.697 15.3333 29.697C18.4848 28.9091 22.303 27.6364 25.9394 25.697C23.0909 25.2122 19.697 22.8485 17.3939 20.4849C15.5757 18.6061 14.4242 16.7273 13.9394 15.0303C12.2424 18.4243 11.0909 21.9394 10.3636 24.7879C10.303 24.9091 10.3636 25.1516 10.5454 25.3334Z" fill="#FF452B"/>
<path d="M27.2121 2.24243C21.697 4.30304 17.9394 7.9394 14.9697 13.0303C14.7273 14.6667 15.9394 17.0909 18.2424 19.5152C21.4545 22.9091 25.4545 24.9091 27.7576 24.3637C27.8182 24.3637 27.8788 24.3637 27.9394 24.3637C32.4848 21.5152 35.7576 17.8788 37.6969 12.7273C34.8485 11.8788 28.1212 5.15152 27.2121 2.24243ZM26.5454 13.3333C25.0303 14.8485 22.5454 15.6364 21.1515 14.2424C19.8788 12.9697 20.303 10.6061 22.0606 8.8485C23.5757 7.33334 26.0606 6.48486 27.4545 7.9394C28.9091 9.39395 28 11.8788 26.5454 13.3333Z" fill="#FF452B"/>
</svg>
