<svg width="15" height="15" viewBox="0 0 15 15" fill="none" xmlns="http://www.w3.org/2000/svg">
	<path d="M1.96721 14.6321L4.26231 12.3433C5.40985 13.1608 6.72132 13.5695 8.19673 13.5695C11.9672 13.5695 15 10.545 15 6.78474C15 3.02452 11.9672 0 8.19673 0C4.42623 0 1.39345 3.02452 1.39345 6.78474C1.39345 8.17439 1.80329 9.56403 2.62296 10.7084L0.327865 12.9973C0.0819625 13.2425 8.9407e-07 13.4877 8.9407e-07 13.8147C8.9407e-07 14.1417 0.0819625 14.3869 0.327865 14.6321C0.819668 15.1226 1.55737 15.1226 1.96721 14.6321ZM8.19673 2.37055C10.6557 2.37055 12.7049 4.41415 12.7049 6.86647C12.7049 9.31879 10.6557 11.3624 8.19673 11.3624C6.96722 11.3624 5.90165 10.8719 5.00001 10.0545C4.18034 9.23706 3.68853 8.09263 3.68853 6.86647C3.77049 4.3324 5.73771 2.37055 8.19673 2.37055Z" fill="#1A1A1A" />
</svg>
