<svg width="15" height="15" viewBox="0 0 15 15" fill="none" xmlns="http://www.w3.org/2000/svg">
	<path d="M1.49013 5.71429H11.921V7.14286H13.4112V2.85714C13.4112 2.07143 12.7406 1.42857 11.921 1.42857H11.176V0H9.68583V1.42857H3.72532V0H2.23519V1.42857H1.49013C0.663107 1.42857 0.00745063 2.07143 0.00745063 2.85714L0 12.8571C0 13.6429 0.663107 14.2857 1.49013 14.2857H6.70558V12.8571H1.49013V5.71429ZM1.49013 2.85714H11.921V4.28571H1.49013V2.85714ZM14.7821 10.2L14.2531 10.7071L12.6735 9.19286L13.2025 8.68571C13.4931 8.40714 13.9625 8.40714 14.2531 8.68571L14.7821 9.19286C15.0726 9.47143 15.0726 9.92143 14.7821 10.2ZM12.1445 9.7L13.7241 11.2143L9.77524 15H8.1957V13.4857L12.1445 9.7Z" fill="black" />
</svg>
