<svg width="13" height="15" viewBox="0 0 13 15" fill="none" xmlns="http://www.w3.org/2000/svg">
	<path d="M6.5 0C9.9125 0 13 2.415 13 6.15C13 8.64 10.8306 11.5875 6.5 15C2.16938 11.5875 0 8.64 0 6.15C0 2.415 3.0875 0 6.5 0ZM11.375 6.15C11.375 3.4275 9.22187 1.5 6.5 1.5C3.77813 1.5 1.625 3.4275 1.625 6.15C1.625 7.905 3.20937 10.23 6.5 13.005C9.79063 10.23 11.375 7.905 11.375 6.15ZM6.5 7.5C5.60625 7.5 4.875 6.825 4.875 6C4.875 5.175 5.60625 4.5 6.5 4.5C7.39375 4.5 8.125 5.175 8.125 6C8.125 6.825 7.39375 7.5 6.5 7.5Z" fill="black" />
</svg>
