<svg width="17" height="17" viewBox="0 0 17 17" fill="none" xmlns="http://www.w3.org/2000/svg">
	<path d="M16 6.35714V7.35714C16.5523 7.35714 17 6.90943 17 6.35714H16ZM16 10.6429H17C17 10.0906 16.5523 9.64286 16 9.64286V10.6429ZM1 10.6429V9.64286C0.447715 9.64286 0 10.0906 0 10.6429H1ZM1 6.35714H0C0 6.90943 0.447715 7.35714 1 7.35714L1 6.35714ZM12 1C12 0.447715 11.5523 0 11 0C10.4477 0 10 0.447715 10 1H12ZM10 3.14286C10 3.69514 10.4477 4.14286 11 4.14286C11.5523 4.14286 12 3.69514 12 3.14286H10ZM12 7.42857C12 6.87629 11.5523 6.42857 11 6.42857C10.4477 6.42857 10 6.87629 10 7.42857H12ZM10 9.57143C10 10.1237 10.4477 10.5714 11 10.5714C11.5523 10.5714 12 10.1237 12 9.57143H10ZM12 13.8571C12 13.3049 11.5523 12.8571 11 12.8571C10.4477 12.8571 10 13.3049 10 13.8571H12ZM10 16C10 16.5523 10.4477 17 11 17C11.5523 17 12 16.5523 12 16H10ZM2.66667 0C0.974586 0 0 1.65555 0 3.14286H2C2 2.75526 2.12321 2.43995 2.27751 2.24157C2.43075 2.04454 2.57629 2 2.66667 2V0ZM14.3333 0H2.66667V2H14.3333V0ZM17 3.14286C17 1.65555 16.0254 0 14.3333 0V2C14.4237 2 14.5692 2.04454 14.7225 2.24157C14.8768 2.43995 15 2.75526 15 3.14286H17ZM17 6.35714V3.14286H15V6.35714H17ZM15.3333 8.5C15.3333 8.11241 15.4565 7.79709 15.6108 7.59871C15.7641 7.40168 15.9096 7.35714 16 7.35714V5.35714C14.3079 5.35714 13.3333 7.01269 13.3333 8.5H15.3333ZM16 9.64286C15.9096 9.64286 15.7641 9.59832 15.6108 9.40129C15.4565 9.20291 15.3333 8.88759 15.3333 8.5H13.3333C13.3333 9.98731 14.3079 11.6429 16 11.6429V9.64286ZM17 13.8571V10.6429H15V13.8571H17ZM14.3333 17C16.0254 17 17 15.3445 17 13.8571H15C15 14.2447 14.8768 14.5601 14.7225 14.7584C14.5692 14.9555 14.4237 15 14.3333 15V17ZM2.66667 17H14.3333V15H2.66667V17ZM0 13.8571C0 15.3445 0.974586 17 2.66667 17V15C2.57629 15 2.43075 14.9555 2.27751 14.7584C2.12321 14.5601 2 14.2447 2 13.8571H0ZM0 10.6429V13.8571H2V10.6429H0ZM1.66667 8.5C1.66667 8.88759 1.54345 9.20291 1.38916 9.40129C1.23591 9.59832 1.09037 9.64286 1 9.64286V11.6429C2.69208 11.6429 3.66667 9.98731 3.66667 8.5H1.66667ZM1 7.35714C1.09037 7.35714 1.23591 7.40168 1.38916 7.59871C1.54345 7.79709 1.66667 8.11241 1.66667 8.5H3.66667C3.66667 7.01269 2.69208 5.35714 1 5.35714V7.35714ZM0 3.14286V6.35714H2V3.14286H0ZM10 1V3.14286H12V1H10ZM10 7.42857V9.57143H12V7.42857H10ZM10 13.8571V16H12V13.8571H10Z" fill="#111827" />
</svg>
