<svg width="18" height="18" viewBox="0 0 18 18" fill="none" xmlns="http://www.w3.org/2000/svg">
	<path d="M13.0901 9.9C13.7648 9.9 14.3587 9.531 14.6646 8.973L17.8854 3.132C18.2182 2.538 17.7864 1.8 17.1026 1.8H3.78759L2.9419 0H0V1.8H1.79932L5.03812 8.631L3.82358 10.827C3.16682 12.033 4.03049 13.5 5.39798 13.5H16.194V11.7H5.39798L6.38761 9.9H13.0901ZM4.64226 3.6H15.5732L13.0901 8.1H6.77447L4.64226 3.6ZM5.39798 14.4C4.40836 14.4 3.60765 15.21 3.60765 16.2C3.60765 17.19 4.40836 18 5.39798 18C6.38761 18 7.19731 17.19 7.19731 16.2C7.19731 15.21 6.38761 14.4 5.39798 14.4ZM14.3946 14.4C13.4051 14.4 12.6043 15.21 12.6043 16.2C12.6043 17.19 13.4051 18 14.3946 18C15.3842 18 16.194 17.19 16.194 16.2C16.194 15.21 15.3842 14.4 14.3946 14.4Z" fill="white" />
</svg>
