<svg xmlns="http://www.w3.org/2000/svg" data-name="Layer 1" viewBox="0 0 512 512">
	<path fill="#00acea" d="M501.06,311.72a47.526,47.526,0,0,1-46.56,57.03H189.58L43.98,319.83l-34-102.74H48.2l39.63,56.62H206.02l.2-.12,20.51,32.61H331.21L303.1,273.93l.25-.22H432.02v22.01a16,16,0,0,0,16,16Z" />
	<path fill="#fedb41" d="M501.06,311.72H448.02a16,16,0,0,1-16-16V273.71H454.5A47.52,47.52,0,0,1,501.06,311.72Z" />
	<polygon fill="#00efd1" points="303.1 273.93 331.21 306.2 226.73 306.2 206.22 273.59 124.23 143.25 189.3 143.25 303.1 273.93" />
	<path fill="#083863" d="M454.5,267H306.1L194.579,138.673A7.276,7.276,0,0,0,189.3,136H124.23a7.118,7.118,0,0,0-6.127,3.741,7.383,7.383,0,0,0,.2,7.319L193.62,267H91.475l-37.54-53.824A7.189,7.189,0,0,0,48.2,210H9.98a7.064,7.064,0,0,0-6.646,9.267l34,102.751a7.008,7.008,0,0,0,4.416,4.442l145.6,49.047a7.138,7.138,0,0,0,2.229.493H454.5a54.739,54.739,0,0,0,54.52-54.708,53.451,53.451,0,0,0-1.1-10.785A54.541,54.541,0,0,0,454.5,267Zm37.011,38H448.02a9.27,9.27,0,0,1-9.02-9.28V281h15.5C470.7,281,485.114,290,491.511,305Zm-305.4-155L297.821,278.4v-.037L315.829,299H230.6L136.9,150ZM483.15,350.005a40.37,40.37,0,0,1-28.65,12H190.724l-141.2-47.611L19.67,224H44.555L82.1,277.824A7.189,7.189,0,0,0,87.83,281h114.6l18.379,28.972A6.78,6.78,0,0,0,226.73,313H331.21a6.909,6.909,0,0,0,6.371-4,6.673,6.673,0,0,0-1.093-7.3l-18.2-20.7H425v14.72A23.284,23.284,0,0,0,448.02,319h46.913c.052,1,.087,1.6.087,2.432A40.04,40.04,0,0,1,483.15,350.005Z" />
</svg>
